<mxfile host="app.diagrams.net" modified="2022-12-30T03:43:39.927Z" agent="5.0 (Windows NT 10.0; Win64; x64) AppleWebKit/537.36 (KHTML, like Gecko) Chrome/108.0.0.0 Safari/537.36" version="20.7.4" etag="Jkb98ybYVk-9Jdg4OlUo" type="github">
  <diagram id="1N2jIJFxWOr1y9suq2AC" name="第 1 页">
    <mxGraphModel dx="1050" dy="549" grid="1" gridSize="10" guides="1" tooltips="1" connect="1" arrows="1" fold="1" page="1" pageScale="1" pageWidth="827" pageHeight="1169" math="0" shadow="0">
      <root>
        <mxCell id="0" />
        <mxCell id="1" parent="0" />
        <mxCell id="C7mGbUYQLxLKSOWw2xmZ-2" value="" style="rounded=0;whiteSpace=wrap;html=1;" vertex="1" parent="1">
          <mxGeometry x="450" y="160" width="120" height="60" as="geometry" />
        </mxCell>
        <mxCell id="C7mGbUYQLxLKSOWw2xmZ-4" style="edgeStyle=orthogonalEdgeStyle;rounded=0;orthogonalLoop=1;jettySize=auto;html=1;" edge="1" parent="1" source="C7mGbUYQLxLKSOWw2xmZ-3" target="C7mGbUYQLxLKSOWw2xmZ-2">
          <mxGeometry relative="1" as="geometry" />
        </mxCell>
        <mxCell id="C7mGbUYQLxLKSOWw2xmZ-6" value="" style="edgeStyle=orthogonalEdgeStyle;rounded=0;orthogonalLoop=1;jettySize=auto;html=1;" edge="1" parent="1" source="C7mGbUYQLxLKSOWw2xmZ-3" target="C7mGbUYQLxLKSOWw2xmZ-5">
          <mxGeometry relative="1" as="geometry" />
        </mxCell>
        <mxCell id="C7mGbUYQLxLKSOWw2xmZ-8" value="" style="edgeStyle=orthogonalEdgeStyle;rounded=0;orthogonalLoop=1;jettySize=auto;html=1;" edge="1" parent="1" source="C7mGbUYQLxLKSOWw2xmZ-3" target="C7mGbUYQLxLKSOWw2xmZ-7">
          <mxGeometry relative="1" as="geometry" />
        </mxCell>
        <mxCell id="C7mGbUYQLxLKSOWw2xmZ-10" value="" style="edgeStyle=orthogonalEdgeStyle;rounded=0;orthogonalLoop=1;jettySize=auto;html=1;" edge="1" parent="1" source="C7mGbUYQLxLKSOWw2xmZ-3" target="C7mGbUYQLxLKSOWw2xmZ-9">
          <mxGeometry relative="1" as="geometry" />
        </mxCell>
        <mxCell id="C7mGbUYQLxLKSOWw2xmZ-3" value="" style="rounded=1;whiteSpace=wrap;html=1;" vertex="1" parent="1">
          <mxGeometry x="60" y="220" width="120" height="60" as="geometry" />
        </mxCell>
        <mxCell id="C7mGbUYQLxLKSOWw2xmZ-5" value="" style="rounded=1;whiteSpace=wrap;html=1;" vertex="1" parent="1">
          <mxGeometry x="450" y="380" width="120" height="60" as="geometry" />
        </mxCell>
        <mxCell id="C7mGbUYQLxLKSOWw2xmZ-7" value="" style="whiteSpace=wrap;html=1;rounded=1;" vertex="1" parent="1">
          <mxGeometry x="200" y="10" width="120" height="60" as="geometry" />
        </mxCell>
        <mxCell id="C7mGbUYQLxLKSOWw2xmZ-9" value="" style="ellipse;whiteSpace=wrap;html=1;rounded=1;" vertex="1" parent="1">
          <mxGeometry x="220" y="370" width="80" height="80" as="geometry" />
        </mxCell>
      </root>
    </mxGraphModel>
  </diagram>
</mxfile>
